<svg width="33" height="34" viewBox="0 0 33 34" fill="none" xmlns="http://www.w3.org/2000/svg">
<g clip-path="url(#clip0_1495_1858)">
<path d="M0.5 2.99773C0.5 1.71195 1.56844 0.669922 2.88672 0.669922H30.6133C31.9316 0.669922 33 1.71195 33 2.99773V30.8421C33 32.1279 31.9316 33.1699 30.6133 33.1699H2.88672C1.56844 33.1699 0.5 32.1279 0.5 30.8421V2.99773ZM10.5405 27.8765V13.2007H5.66344V27.8765H10.5405ZM8.10297 11.1959C9.80313 11.1959 10.8614 10.0705 10.8614 8.66086C10.8309 7.2207 9.80516 6.12586 8.13547 6.12586C6.46578 6.12586 5.375 7.22273 5.375 8.66086C5.375 10.0705 6.43328 11.1959 8.07047 11.1959H8.10297ZM18.0723 27.8765V19.6804C18.0723 19.2416 18.1048 18.8029 18.2348 18.4901C18.5863 17.6146 19.3886 16.7066 20.7373 16.7066C22.5025 16.7066 23.2073 18.0513 23.2073 20.0257V27.8765H28.0844V19.459C28.0844 14.9496 25.6794 12.8534 22.47 12.8534C19.8822 12.8534 18.7223 14.2752 18.0723 15.2766V15.3274H18.0398C18.0506 15.3105 18.0615 15.2935 18.0723 15.2766V13.2007H13.1973C13.2583 14.5779 13.1973 27.8765 13.1973 27.8765H18.0723Z" fill="black"/>
</g>
<defs>
<clipPath id="clip0_1495_1858">
<rect width="32.5" height="32.5" fill="white" transform="translate(0.5 0.669922)"/>
</clipPath>
</defs>
</svg>
