<svg width="33" height="33" viewBox="0 0 33 33" fill="none" xmlns="http://www.w3.org/2000/svg">
<path d="M0.5 2.37469C0.5 1.08891 1.56844 0.046875 2.88672 0.046875H30.6133C31.9316 0.046875 33 1.08891 33 2.37469V30.2191C33 31.5048 31.9316 32.5469 30.6133 32.5469H2.88672C1.56844 32.5469 0.5 31.5048 0.5 30.2191V2.37469ZM10.5405 27.2534V12.5777H5.66344V27.2534H10.5405ZM8.10297 10.5728C9.80313 10.5728 10.8614 9.4475 10.8614 8.03781C10.8309 6.59766 9.80516 5.50281 8.13547 5.50281C6.46578 5.50281 5.375 6.59969 5.375 8.03781C5.375 9.4475 6.43328 10.5728 8.07047 10.5728H8.10297ZM18.0723 27.2534V19.0573C18.0723 18.6186 18.1048 18.1798 18.2348 17.867C18.5863 16.9916 19.3886 16.0836 20.7373 16.0836C22.5025 16.0836 23.2073 17.4283 23.2073 19.4027V27.2534H28.0844V18.8359C28.0844 14.3266 25.6794 12.2303 22.47 12.2303C19.8822 12.2303 18.7223 13.6522 18.0723 14.6536V14.7044H18.0398C18.0506 14.6874 18.0615 14.6705 18.0723 14.6536V12.5777H13.1973C13.2583 13.9548 13.1973 27.2534 13.1973 27.2534H18.0723Z" fill="white"/>
</svg>
