<svg width="20" height="12" viewBox="0 0 20 12" fill="none" xmlns="http://www.w3.org/2000/svg">
<path d="M19.1004 2.87506L10.7004 11.3001C10.6004 11.4001 10.4921 11.4711 10.3754 11.5131C10.2587 11.5551 10.1337 11.5757 10.0004 11.5751C9.86706 11.5751 9.74206 11.5544 9.62539 11.5131C9.50872 11.4717 9.40039 11.4007 9.30039 11.3001L0.87539 2.87506C0.642057 2.64172 0.52539 2.35006 0.52539 2.00006C0.52539 1.65006 0.65039 1.35006 0.90039 1.10006C1.15039 0.850059 1.44206 0.725059 1.77539 0.725059C2.10872 0.725058 2.40039 0.850058 2.65039 1.10006L10.0004 8.45006L17.3504 1.10006C17.5837 0.866724 17.8714 0.750057 18.2134 0.750057C18.5554 0.750057 18.8511 0.875057 19.1004 1.12506C19.3504 1.37506 19.4754 1.66672 19.4754 2.00006C19.4754 2.33339 19.3504 2.62506 19.1004 2.87506Z" fill="black"/>
</svg>
